<svg width="656" height="656" viewBox="0 0 656 656" fill="none" xmlns="http://www.w3.org/2000/svg">
<path d="M647.686 318.294C647.741 320.291 647.778 322.291 647.797 324.296L646.297 324.31C646.306 325.308 646.31 326.307 646.31 327.308C646.31 328.308 646.306 329.307 646.297 330.305L647.797 330.319C647.778 332.324 647.741 334.325 647.686 336.321L646.187 336.28C646.132 338.267 646.059 340.249 645.968 342.227L647.466 342.296C647.374 344.299 647.263 346.297 647.135 348.29L645.638 348.193C645.509 350.182 645.362 352.166 645.198 354.145L646.692 354.27C646.527 356.259 646.343 358.242 646.141 360.22L644.649 360.068C644.446 362.056 644.225 364.038 643.986 366.014L645.475 366.194C645.235 368.18 644.977 370.16 644.701 372.134L643.215 371.926C642.939 373.897 642.645 375.862 642.334 377.82L643.815 378.056C643.5 380.035 643.167 382.009 642.816 383.976L641.34 383.712C640.99 385.67 640.623 387.621 640.238 389.567L641.71 389.858C641.321 391.822 640.915 393.779 640.491 395.73L639.025 395.411C638.602 397.358 638.161 399.298 637.702 401.231L639.161 401.578C638.701 403.52 638.222 405.455 637.726 407.384L636.273 407.01C635.776 408.942 635.262 410.867 634.73 412.785L636.175 413.186C635.641 415.112 635.088 417.032 634.519 418.944L633.081 418.516C632.513 420.422 631.928 422.322 631.326 424.213L632.755 424.669C632.148 426.576 631.523 428.476 630.881 430.368L629.46 429.886C628.821 431.769 628.165 433.644 627.492 435.51L628.903 436.019C628.224 437.902 627.529 439.776 626.816 441.642L625.415 441.107C624.704 442.966 623.977 444.818 623.233 446.66L624.624 447.222C623.876 449.074 623.112 450.918 622.331 452.753L620.95 452.165C620.17 453.998 619.373 455.822 618.56 457.637L619.928 458.251C619.111 460.075 618.277 461.889 617.427 463.695L616.07 463.056C615.222 464.856 614.358 466.647 613.478 468.429L614.822 469.093C613.936 470.886 613.034 472.67 612.116 474.444L610.784 473.754C609.87 475.52 608.94 477.276 607.994 479.022L609.313 479.736C608.36 481.495 607.391 483.244 606.407 484.983L605.102 484.244C604.122 485.975 603.126 487.697 602.114 489.407L603.406 490.171C602.389 491.891 601.356 493.601 600.308 495.3L599.031 494.513C597.987 496.207 596.927 497.891 595.851 499.563L597.113 500.374C596.033 502.055 594.937 503.725 593.827 505.384L592.58 504.55C591.473 506.203 590.351 507.846 589.214 509.477L590.445 510.335C589.302 511.974 588.145 513.603 586.972 515.22L585.758 514.34C584.591 515.95 583.409 517.549 582.212 519.136L583.41 520.039C582.207 521.635 580.989 523.22 579.757 524.793L578.576 523.868C577.35 525.433 576.109 526.987 574.854 528.529L576.017 529.476C574.756 531.026 573.48 532.564 572.191 534.09L571.045 533.121C569.761 534.64 568.463 536.147 567.151 537.642L568.279 538.631C566.961 540.133 565.629 541.622 564.284 543.099L563.175 542.088C561.835 543.559 560.482 545.016 559.116 546.461L560.205 547.492C558.832 548.944 557.446 550.383 556.047 551.808L554.976 550.758C553.583 552.177 552.177 553.583 550.758 554.976L551.808 556.047C550.383 557.446 548.944 558.832 547.492 560.205L546.461 559.116C545.016 560.482 543.559 561.835 542.088 563.175L543.099 564.284C541.622 565.629 540.133 566.961 538.631 568.279L537.642 567.151C536.147 568.463 534.64 569.761 533.121 571.045L534.09 572.191C532.564 573.48 531.026 574.756 529.476 576.017L528.529 574.854C526.987 576.109 525.433 577.35 523.868 578.576L524.793 579.757C523.22 580.989 521.635 582.207 520.039 583.41L519.136 582.212C517.549 583.409 515.95 584.591 514.34 585.758L515.22 586.972C513.603 588.145 511.974 589.302 510.335 590.445L509.477 589.214C507.846 590.351 506.203 591.473 504.549 592.58L505.384 593.827C503.725 594.937 502.055 596.033 500.374 597.113L499.563 595.851C497.891 596.927 496.207 597.987 494.513 599.031L495.3 600.308C493.601 601.356 491.891 602.389 490.171 603.406L489.407 602.114C487.697 603.126 485.975 604.121 484.244 605.102L484.983 606.407C483.244 607.391 481.495 608.36 479.736 609.313L479.022 607.994C477.276 608.94 475.52 609.87 473.754 610.784L474.444 612.116C472.67 613.034 470.886 613.936 469.093 614.822L468.429 613.477C466.647 614.358 464.856 615.222 463.056 616.07L463.695 617.427C461.889 618.277 460.075 619.111 458.251 619.928L457.637 618.559C455.822 619.373 453.998 620.17 452.165 620.95L452.753 622.33C450.918 623.112 449.074 623.876 447.222 624.624L446.66 623.233C444.817 623.977 442.966 624.704 441.107 625.415L441.642 626.816C439.776 627.529 437.902 628.224 436.019 628.903L435.51 627.492C433.643 628.165 431.768 628.821 429.886 629.46L430.368 630.881C428.476 631.523 426.576 632.148 424.668 632.755L424.213 631.326C422.322 631.928 420.422 632.513 418.516 633.081L418.944 634.519C417.032 635.088 415.112 635.641 413.186 636.175L412.785 634.73C410.867 635.262 408.942 635.776 407.01 636.273L407.384 637.726C405.455 638.222 403.52 638.7 401.577 639.161L401.231 637.702C399.298 638.161 397.358 638.602 395.411 639.025L395.73 640.491C393.779 640.915 391.822 641.321 389.858 641.71L389.566 640.238C387.621 640.623 385.67 640.99 383.712 641.34L383.975 642.816C382.008 643.167 380.035 643.5 378.056 643.815L377.82 642.334C375.861 642.645 373.897 642.939 371.926 643.215L372.134 644.7C370.16 644.977 368.18 645.235 366.194 645.475L366.014 643.986C364.037 644.225 362.055 644.446 360.068 644.649L360.22 646.141C358.242 646.343 356.258 646.527 354.27 646.692L354.145 645.198C352.166 645.362 350.182 645.509 348.193 645.638L348.29 647.135C346.296 647.263 344.298 647.374 342.296 647.466L342.227 645.968C340.249 646.059 338.266 646.132 336.279 646.187L336.321 647.686C334.325 647.741 332.324 647.778 330.319 647.797L330.305 646.297C329.307 646.306 328.308 646.31 327.308 646.31C326.307 646.31 325.308 646.306 324.31 646.297L324.296 647.797C322.291 647.778 320.29 647.741 318.294 647.686L318.335 646.187C316.348 646.132 314.366 646.059 312.388 645.968L312.319 647.466C310.316 647.374 308.318 647.263 306.325 647.135L306.422 645.638C304.433 645.509 302.449 645.362 300.47 645.197L300.345 646.692C298.356 646.527 296.373 646.343 294.395 646.141L294.547 644.649C292.559 644.446 290.577 644.225 288.601 643.986L288.421 645.475C286.435 645.235 284.455 644.977 282.481 644.7L282.689 643.215C280.718 642.939 278.753 642.645 276.795 642.334L276.559 643.815C274.58 643.5 272.607 643.167 270.639 642.816L270.903 641.34C268.945 640.99 266.994 640.623 265.048 640.238L264.757 641.71C262.793 641.321 260.836 640.915 258.885 640.491L259.204 639.025C257.257 638.602 255.317 638.16 253.384 637.702L253.038 639.161C251.095 638.7 249.16 638.222 247.231 637.726L247.605 636.273C245.673 635.776 243.748 635.262 241.83 634.73L241.429 636.175C239.503 635.64 237.583 635.088 235.671 634.519L236.099 633.081C234.193 632.513 232.293 631.928 230.402 631.326L229.946 632.755C228.039 632.147 226.139 631.523 224.247 630.88L224.729 629.46C222.847 628.821 220.972 628.165 219.105 627.492L218.596 628.903C216.713 628.224 214.839 627.528 212.973 626.816L213.508 625.414C211.649 624.704 209.798 623.977 207.955 623.233L207.393 624.624C205.541 623.876 203.697 623.112 201.862 622.33L202.45 620.95C200.617 620.17 198.793 619.373 196.978 618.559L196.364 619.928C194.54 619.111 192.726 618.277 190.92 617.427L191.559 616.07C189.759 615.222 187.968 614.358 186.186 613.477L185.522 614.822C183.729 613.936 181.945 613.034 180.171 612.116L180.861 610.784C179.095 609.87 177.339 608.94 175.593 607.994L174.879 609.313C173.12 608.36 171.371 607.391 169.632 606.407L170.371 605.102C168.64 604.121 166.919 603.126 165.208 602.114L164.444 603.405C162.724 602.388 161.014 601.356 159.315 600.308L160.102 599.031C158.408 597.987 156.724 596.927 155.052 595.851L154.241 597.113C152.56 596.033 150.89 594.937 149.231 593.827L150.066 592.58C148.412 591.473 146.769 590.351 145.138 589.214L144.28 590.445C142.641 589.302 141.012 588.144 139.395 586.972L140.275 585.758C138.665 584.59 137.066 583.409 135.479 582.212L134.576 583.41C132.98 582.207 131.395 580.989 129.822 579.757L130.747 578.576C129.182 577.349 127.628 576.109 126.086 574.854L125.139 576.017C123.589 574.756 122.051 573.48 120.525 572.19L121.494 571.045C119.975 569.761 118.468 568.463 116.973 567.151L115.984 568.279C114.482 566.961 112.993 565.629 111.516 564.284L112.527 563.175C111.056 561.835 109.599 560.482 108.154 559.115L107.123 560.205C105.671 558.832 104.233 557.446 102.807 556.046L103.857 554.976C102.438 553.583 101.032 552.177 99.639 550.758L98.5685 551.808C97.1689 550.382 95.7826 548.944 94.4097 547.492L95.4995 546.461C94.133 545.016 92.7798 543.559 91.4402 542.088L90.3314 543.099C88.9861 541.622 87.6544 540.133 86.3364 538.631L87.4638 537.642C86.1521 536.147 84.8541 534.64 83.5701 533.121L82.4245 534.089C81.1348 532.564 79.8592 531.026 78.5977 529.476L79.7611 528.529C78.5062 526.987 77.2655 525.433 76.039 523.868L74.8582 524.793C73.626 523.22 72.4082 521.635 71.205 520.039L72.4028 519.136C71.2064 517.549 70.0245 515.95 68.8573 514.34L67.6429 515.22C66.4705 513.603 65.3129 511.974 64.1702 510.335L65.4008 509.477C64.2639 507.846 63.1419 506.203 62.0349 504.549L60.7884 505.384C59.6778 503.725 58.5822 502.055 57.5019 500.374L58.7637 499.563C57.6885 497.89 56.6284 496.207 55.5838 494.513L54.307 495.3C53.259 493.601 52.2265 491.891 51.2095 490.171L52.5008 489.407C51.4894 487.696 50.4936 485.975 49.5135 484.244L48.2081 484.983C47.2236 483.244 46.2548 481.495 45.302 479.736L46.621 479.022C45.6752 477.275 44.7452 475.52 43.8312 473.754L42.4991 474.444C41.5809 472.67 40.6787 470.886 39.7928 469.093L41.1376 468.429C40.2573 466.647 39.3931 464.856 38.5453 463.056L37.1883 463.695C36.338 461.889 35.5041 460.074 34.6868 458.251L36.0556 457.637C35.2421 455.822 34.4451 453.998 33.6647 452.165L32.2846 452.753C31.5034 450.918 30.7387 449.074 29.9909 447.222L31.3819 446.66C30.638 444.817 29.9108 442.966 29.2005 441.107L27.7992 441.642C27.0865 439.776 26.3907 437.902 25.7121 436.019L27.1232 435.51C26.4501 433.643 25.794 431.768 25.1549 429.885L23.7345 430.368C23.0924 428.476 22.4676 426.576 21.8601 424.668L23.2893 424.213C22.6869 422.322 22.1016 420.422 21.5337 418.515L20.0961 418.944C19.5267 417.032 18.9746 415.112 18.44 413.185L19.8854 412.784C19.3534 410.867 18.8388 408.942 18.3419 407.01L16.8892 407.384C16.3932 405.455 15.9146 403.52 15.4538 401.577L16.9132 401.231C16.4545 399.298 16.0134 397.358 15.5901 395.411L14.1244 395.73C13.7001 393.779 13.2937 391.821 12.9052 389.858L14.3766 389.566C13.9918 387.621 13.6247 385.67 13.2754 383.712L11.7987 383.975C11.4478 382.008 11.1148 380.035 10.7999 378.056L12.2813 377.82C11.9697 375.861 11.6759 373.897 11.4001 371.926L9.91463 372.134C9.63832 370.16 9.37999 368.18 9.13982 366.194L10.629 366.014C10.3899 364.037 10.169 362.055 9.96623 360.068L8.47397 360.22C8.27217 358.242 8.08837 356.258 7.92272 354.27L9.41755 354.145C9.25271 352.166 9.10594 350.182 8.97739 348.193L7.48051 348.289C7.35172 346.296 7.24114 344.298 7.14894 342.296L8.64735 342.227C8.55631 340.249 8.48328 338.266 8.42841 336.279L6.92898 336.321C6.87386 334.325 6.83699 332.324 6.81854 330.319L8.31847 330.305C8.30929 329.307 8.30469 328.308 8.30469 327.308C8.30469 326.307 8.30929 325.308 8.31848 324.31L6.81854 324.296C6.837 322.291 6.87387 320.29 6.92899 318.294L8.42842 318.335C8.48329 316.348 8.55632 314.366 8.64737 312.388L7.14895 312.319C7.24115 310.316 7.35174 308.318 7.48054 306.325L8.97741 306.422C9.10596 304.433 9.25273 302.449 9.41757 300.47L7.92275 300.345C8.0884 298.356 8.2722 296.373 8.474 294.395L9.96626 294.547C10.169 292.559 10.39 290.577 10.629 288.601L9.13986 288.421C9.38003 286.435 9.63836 284.455 9.91467 282.481L11.4002 282.689C11.676 280.718 11.9698 278.753 12.2814 276.795L10.8 276.559C11.1149 274.58 11.4478 272.606 11.7988 270.639L13.2755 270.903C13.6247 268.945 13.9919 266.994 14.3767 265.048L12.9052 264.757C13.2937 262.793 13.7002 260.836 14.1244 258.885L15.5902 259.204C16.0135 257.257 16.4546 255.317 16.9133 253.384L15.4538 253.038C15.9147 251.095 16.3932 249.16 16.8893 247.231L18.342 247.605C18.8389 245.673 19.3535 243.748 19.8855 241.83L18.4401 241.429C18.9746 239.503 19.5267 237.583 20.0962 235.671L21.5338 236.099C22.1017 234.193 22.687 232.293 23.2894 230.402L21.8601 229.946C22.4676 228.039 23.0925 226.139 23.7346 224.247L25.155 224.729C25.794 222.846 26.4502 220.971 27.1232 219.105L25.7121 218.596C26.3908 216.713 27.0866 214.839 27.7993 212.973L29.2006 213.508C29.9108 211.649 30.638 209.798 31.3819 207.955L29.991 207.393C30.7388 205.541 31.5034 203.697 32.2846 201.862L33.6648 202.45C34.4451 200.617 35.2422 198.793 36.0557 196.978L34.6869 196.364C35.5042 194.54 36.3381 192.726 37.1884 190.92L38.5454 191.559C39.3932 189.759 40.2574 187.968 41.1377 186.186L39.7929 185.522C40.6788 183.729 41.5809 181.945 42.4992 180.171L43.8313 180.861C44.7453 179.095 45.6753 177.339 46.621 175.593L45.3021 174.879C46.2549 173.12 47.2237 171.371 48.2082 169.632L49.5135 170.371C50.4937 168.64 51.4895 166.919 52.5009 165.208L51.2096 164.444C52.2266 162.724 53.2591 161.014 54.3071 159.315L55.5839 160.102C56.6285 158.408 57.6886 156.724 58.7638 155.052L57.502 154.241C58.5823 152.56 59.6779 150.89 60.7885 149.231L62.035 150.065C63.142 148.412 64.264 146.769 65.4009 145.138L64.1703 144.28C65.313 142.641 66.4706 141.012 67.643 139.395L68.8574 140.275C70.0247 138.665 71.2066 137.066 72.4029 135.479L71.2051 134.576C72.4083 132.98 73.6261 131.395 74.8583 129.822L76.0391 130.747C77.2656 129.182 78.5064 127.628 79.7612 126.086L78.5978 125.139C79.8593 123.589 81.1349 122.051 82.4246 120.525L83.5702 121.494C84.8542 119.975 86.1522 118.468 87.4639 116.973L86.3366 115.984C87.6545 114.482 88.9862 112.993 90.3315 111.516L91.4403 112.527C92.7799 111.056 94.1331 109.599 95.4996 108.154L94.4098 107.123C95.7827 105.671 97.1691 104.232 98.5686 102.807L99.6391 103.857C101.032 102.438 102.438 101.032 103.858 99.639L102.807 98.5685C104.233 97.1689 105.671 95.7826 107.123 94.4097L108.154 95.4995C109.599 94.1329 111.056 92.7798 112.527 91.4402L111.517 90.3314C112.993 88.9861 114.482 87.6543 115.984 86.3364L116.973 87.4638C118.468 86.1521 119.975 84.8541 121.494 83.57L120.526 82.4245C122.051 81.1348 123.589 79.8592 125.139 78.5977L126.086 79.7611C127.628 78.5062 129.182 77.2655 130.747 76.039L129.822 74.8582C131.395 73.626 132.98 72.4082 134.576 71.205L135.479 72.4028C137.066 71.2064 138.665 70.0245 140.275 68.8573L139.395 67.6429C141.012 66.4705 142.641 65.3129 144.28 64.1702L145.138 65.4008C146.77 64.2639 148.412 63.1419 150.066 62.0349L149.231 60.7884C150.89 59.6778 152.56 58.5822 154.241 57.5019L155.052 58.7637C156.725 57.6885 158.408 56.6284 160.102 55.5838L159.315 54.307C161.014 53.259 162.724 52.2265 164.445 51.2095L165.208 52.5008C166.919 51.4894 168.64 50.4936 170.371 49.5134L169.632 48.2081C171.371 47.2236 173.12 46.2548 174.879 45.302L175.594 46.621C177.34 45.6752 179.096 44.7452 180.861 43.8312L180.172 42.4991C181.945 41.5809 183.729 40.6787 185.522 39.7928L186.186 41.1376C187.968 40.2573 189.759 39.3931 191.559 38.5453L190.92 37.1883C192.726 36.338 194.541 35.5041 196.364 34.6868L196.978 36.0556C198.793 35.2421 200.617 34.4451 202.45 33.6647L201.862 32.2846C203.697 31.5033 205.541 30.7387 207.394 29.9909L207.955 31.3819C209.798 30.638 211.649 29.9108 213.508 29.2005L212.973 27.7992C214.839 27.0865 216.714 26.3907 218.596 25.712L219.105 27.1231C220.972 26.4501 222.847 25.7939 224.73 25.1549L224.248 23.7345C226.139 23.0924 228.039 22.4676 229.947 21.8601L230.402 23.2893C232.294 22.6869 234.193 22.1016 236.1 21.5337L235.672 20.0961C237.583 19.5266 239.503 18.9746 241.43 18.44L241.831 19.8854C243.748 19.3534 245.673 18.8388 247.605 18.3419L247.231 16.8892C249.16 16.3932 251.095 15.9146 253.038 15.4538L253.384 16.9132C255.317 16.4545 257.257 16.0134 259.204 15.5901L258.885 14.1244C260.836 13.7001 262.794 13.2937 264.758 12.9052L265.049 14.3766C266.994 13.9918 268.945 13.6247 270.903 13.2754L270.64 11.7987C272.607 11.4478 274.58 11.1148 276.559 10.7999L276.795 12.2813C278.754 11.9697 280.719 11.6759 282.689 11.4001L282.481 9.91463C284.455 9.63831 286.436 9.37999 288.421 9.13982L288.601 10.629C290.578 10.3899 292.56 10.169 294.547 9.96622L294.395 8.47397C296.373 8.27217 298.357 8.08837 300.346 7.92272L300.47 9.41755C302.449 9.25271 304.433 9.10593 306.422 8.97739L306.326 7.48051C308.319 7.35172 310.317 7.24114 312.32 7.14894L312.389 8.64735C314.366 8.55631 316.349 8.48327 318.336 8.42841L318.294 6.92898C320.291 6.87386 322.291 6.83699 324.297 6.81854L324.31 8.31847C325.308 8.30929 326.307 8.30469 327.308 8.30469C328.308 8.30469 329.307 8.30929 330.305 8.31848L330.319 6.81854C332.324 6.837 334.325 6.87387 336.321 6.92899L336.28 8.42842C338.267 8.48329 340.249 8.55632 342.227 8.64737L342.296 7.14895C344.299 7.24115 346.297 7.35174 348.29 7.48054L348.193 8.97741C350.182 9.10596 352.166 9.25273 354.145 9.41757L354.27 7.92275C356.259 8.0884 358.242 8.27221 360.221 8.474L360.068 9.96626C362.056 10.169 364.038 10.39 366.014 10.629L366.194 9.13986C368.18 9.38003 370.16 9.63836 372.134 9.91467L371.926 11.4002C373.897 11.676 375.862 11.9698 377.821 12.2814L378.056 10.8C380.035 11.1149 382.009 11.4478 383.976 11.7988L383.712 13.2755C385.67 13.6247 387.622 13.9919 389.567 14.3767L389.858 12.9052C391.822 13.2937 393.779 13.7002 395.73 14.1244L395.411 15.5902C397.358 16.0135 399.298 16.4546 401.231 16.9133L401.578 15.4538C403.52 15.9147 405.456 16.3932 407.384 16.8893L407.01 18.342C408.942 18.8389 410.867 19.3534 412.785 19.8855L413.186 18.4401C415.113 18.9746 417.032 19.5267 418.944 20.0962L418.516 21.5338C420.423 22.1017 422.322 22.687 424.214 23.2894L424.669 21.8601C426.576 22.4676 428.476 23.0925 430.368 23.7346L429.886 25.155C431.769 25.794 433.644 26.4502 435.511 27.1232L436.019 25.7121C437.902 26.3908 439.776 27.0866 441.642 27.7993L441.107 29.2006C442.966 29.9108 444.818 30.638 446.66 31.3819L447.222 29.991C449.074 30.7388 450.918 31.5034 452.753 32.2846L452.165 33.6648C453.998 34.4451 455.822 35.2422 457.638 36.0557L458.251 34.6869C460.075 35.5042 461.889 36.3381 463.695 37.1884L463.056 38.5454C464.856 39.3932 466.647 40.2574 468.429 41.1376L469.093 39.7928C470.886 40.6788 472.67 41.5809 474.444 42.4992L473.754 43.8313C475.52 44.7453 477.276 45.6752 479.022 46.621L479.736 45.3021C481.495 46.2549 483.244 47.2237 484.983 48.2082L484.244 49.5135C485.976 50.4937 487.697 51.4895 489.408 52.5009L490.171 51.2096C491.891 52.2266 493.601 53.2591 495.301 54.3071L494.513 55.5839C496.207 56.6285 497.891 57.6886 499.564 58.7638L500.375 57.502C502.055 58.5823 503.725 59.6779 505.384 60.7885L504.55 62.035C506.203 63.142 507.846 64.264 509.477 65.4009L510.335 64.1703C511.975 65.313 513.603 66.4706 515.22 67.643L514.34 68.8574C515.95 70.0246 517.549 71.2065 519.136 72.4029L520.039 71.2051C521.635 72.4083 523.22 73.6261 524.793 74.8583L523.868 76.0391C525.434 77.2656 526.987 78.5063 528.529 79.7612L529.476 78.5978C531.026 79.8593 532.564 81.1349 534.09 82.4246L533.121 83.5702C534.641 84.8542 536.147 86.1522 537.642 87.4639L538.631 86.3365C540.133 87.6544 541.622 88.9862 543.099 90.3315L542.089 91.4403C543.559 92.7799 545.017 94.1331 546.461 95.4996L547.492 94.4098C548.944 95.7827 550.383 97.1691 551.808 98.5686L550.758 99.6391C552.177 101.032 553.583 102.438 554.976 103.858L556.047 102.807C557.446 104.233 558.833 105.671 560.206 107.123L559.116 108.154C560.482 109.599 561.835 111.056 563.175 112.527L564.284 111.516C565.629 112.993 566.961 114.482 568.279 115.984L567.151 116.973C568.463 118.468 569.761 119.975 571.045 121.494L572.191 120.526C573.48 122.051 574.756 123.589 576.017 125.139L574.854 126.086C576.109 127.628 577.35 129.182 578.576 130.747L579.757 129.822C580.989 131.395 582.207 132.98 583.41 134.576L582.212 135.479C583.409 137.066 584.591 138.665 585.758 140.275L586.972 139.395C588.145 141.012 589.302 142.641 590.445 144.28L589.214 145.138C590.351 146.77 591.473 148.412 592.58 150.066L593.827 149.231C594.937 150.89 596.033 152.56 597.113 154.241L595.851 155.052C596.927 156.725 597.987 158.408 599.031 160.102L600.308 159.315C601.356 161.014 602.389 162.724 603.406 164.444L602.114 165.208C603.126 166.919 604.122 168.64 605.102 170.371L606.407 169.632C607.392 171.371 608.36 173.12 609.313 174.879L607.994 175.593C608.94 177.34 609.87 179.096 610.784 180.861L612.116 180.171C613.034 181.945 613.936 183.729 614.822 185.522L613.478 186.186C614.358 187.968 615.222 189.759 616.07 191.559L617.427 190.92C618.277 192.726 619.111 194.541 619.928 196.364L618.56 196.978C619.373 198.793 620.17 200.617 620.95 202.45L622.331 201.862C623.112 203.697 623.876 205.541 624.624 207.394L623.233 207.955C623.977 209.798 624.704 211.649 625.415 213.508L626.816 212.973C627.529 214.839 628.224 216.713 628.903 218.596L627.492 219.105C628.165 220.972 628.821 222.847 629.46 224.73L630.881 224.248C631.523 226.139 632.148 228.039 632.755 229.947L631.326 230.402C631.928 232.294 632.514 234.193 633.081 236.1L634.519 235.671C635.089 237.583 635.641 239.503 636.175 241.43L634.73 241.831C635.262 243.748 635.776 245.673 636.273 247.605L637.726 247.231C638.222 249.16 638.701 251.095 639.161 253.038L637.702 253.384C638.161 255.317 638.602 257.257 639.025 259.204L640.491 258.885C640.915 260.836 641.321 262.794 641.71 264.758L640.239 265.049C640.623 266.994 640.99 268.945 641.34 270.903L642.816 270.64C643.167 272.607 643.5 274.58 643.815 276.559L642.334 276.795C642.645 278.754 642.939 280.718 643.215 282.689L644.701 282.481C644.977 284.455 645.235 286.436 645.475 288.421L643.986 288.601C644.225 290.578 644.446 292.56 644.649 294.547L646.141 294.395C646.343 296.373 646.527 298.357 646.692 300.345L645.198 300.47C645.362 302.449 645.509 304.433 645.638 306.422L647.135 306.326C647.263 308.319 647.374 310.317 647.466 312.32L645.968 312.388C646.059 314.366 646.132 316.349 646.187 318.336L647.686 318.294Z" stroke="#3E4733" stroke-width="3" stroke-dasharray="6 6"/>
<path d="M655.5 328.375C655.5 332.239 652.367 335.372 648.503 335.372C644.639 335.372 641.506 332.239 641.506 328.375C641.506 324.51 644.639 321.377 648.503 321.377C652.367 321.377 655.5 324.51 655.5 328.375Z" fill="white" stroke="#3E4733"/>
<path d="M334.622 648.503C334.622 652.367 331.489 655.5 327.625 655.5C323.761 655.5 320.628 652.367 320.628 648.503C320.628 644.639 323.761 641.506 327.625 641.506C331.489 641.506 334.622 644.639 334.622 648.503Z" fill="#3E4733" stroke="#3E4733"/>
<path d="M14.4943 328.375C14.4943 332.239 11.3616 335.372 7.49714 335.372C3.63273 335.372 0.5 332.239 0.5 328.375C0.5 324.51 3.63273 321.377 7.49714 321.377C11.3616 321.377 14.4943 324.51 14.4943 328.375Z" fill="#3E4733" stroke="#3E4733"/>
<path d="M108.102 553.863C108.102 557.728 104.969 560.86 101.105 560.86C97.2406 560.86 94.1079 557.728 94.1079 553.863C94.1079 549.999 97.2406 546.866 101.105 546.866C104.969 546.866 108.102 549.999 108.102 553.863Z" fill="#3E4733" stroke="#3E4733"/>
<path d="M334.622 7.49714C334.622 11.3616 331.489 14.4943 327.625 14.4943C323.761 14.4943 320.628 11.3616 320.628 7.49714C320.628 3.63273 323.761 0.5 327.625 0.5C331.489 0.5 334.622 3.63273 334.622 7.49714Z" fill="#3E4733" stroke="#3E4733"/>
<path d="M561.892 553.863C561.892 557.728 558.76 560.86 554.895 560.86C551.031 560.86 547.898 557.728 547.898 553.863C547.898 549.999 551.031 546.866 554.895 546.866C558.76 546.866 561.892 549.999 561.892 553.863Z" fill="#3E4733" stroke="#3E4733"/>
<path d="M561.362 100.604C561.362 104.468 558.229 107.601 554.365 107.601C550.5 107.601 547.368 104.468 547.368 100.604C547.368 96.7392 550.5 93.6064 554.365 93.6064C558.229 93.6064 561.362 96.7392 561.362 100.604Z" fill="#3E4733" stroke="#3E4733"/>
<path d="M108.632 100.604C108.632 104.468 105.5 107.601 101.635 107.601C97.7709 107.601 94.6382 104.468 94.6382 100.604C94.6382 96.7392 97.7709 93.6064 101.635 93.6064C105.5 93.6064 108.632 96.7392 108.632 100.604Z" fill="#3E4733" stroke="#3E4733"/>
</svg>
